<svg width="130" height="120" viewBox="0 0 130 120" fill="none" xmlns="http://www.w3.org/2000/svg">
<g id="image">
<circle id="Ellipse 113" cx="65" cy="60" r="41" fill="white" stroke="#CFCFCF" stroke-width="2"/>
<path id="Vector 120" d="M64.4201 19C67.4861 21.5056 72.9689 27.4832 70.3718 31.349C67.1254 36.1812 67.1254 35.1074 70.3718 39.4027C73.6182 43.698 65.5022 44.7718 73.0771 52.8255C80.6521 60.8792 89.8502 53.3624 93.0966 49.604C96.343 45.8456 99.0483 46.3825 101.213 49.604C103.377 52.8255 103.918 51.7517 105 51.7517M27.0866 75.3758C26.7259 70.1857 27.303 60.6644 32.4973 64.1007C38.99 68.396 40.0722 75.9128 45.4829 79.1342C50.8935 82.3557 51.4346 72.6913 60.0916 75.3758C68.7487 78.0604 63.338 85.0403 68.7487 85.0403C74.1593 85.0403 75.7825 96.3154 73.0771 99M63.338 25.443C64.4201 25.443 67.6665 30.8121 63.338 32.9597C59.0095 35.1074 62.2559 37.255 60.0916 39.4027C57.9274 41.5503 48.7293 31.349 55.222 27.5906C60.4163 24.5839 62.797 24.906 63.338 25.443ZM91.4734 61.4161C93.4573 58.9105 98.1826 55.6174 101.213 62.4899C105 71.0805 95.2609 80.2081 89.3092 80.2081C83.3574 80.2081 79.0289 74.302 79.57 71.0805C80.111 67.8591 77.4057 60.8792 81.7342 62.4899C85.1971 63.7785 89.6699 62.311 91.4734 61.4161Z" stroke="#CFCFCF" stroke-width="2"/>
<g id="Vector 121">
<path d="M41.838 41.2314C36.6981 42.0834 39.6964 50.8162 41.838 55.076C43.4441 58.8593 47.1921 55.076 49.8691 56.6735C52.5461 58.271 50.9399 65.1933 58.4356 66.7907C65.9312 68.3882 63.2542 60.4009 57.3647 57.7385C51.4753 55.076 50.9399 53.4786 48.7983 48.1537C46.6567 42.8289 48.2628 40.1664 41.838 41.2314Z" stroke="#CFCFCF" stroke-width="2"/>
<path d="M72.356 60.9334C70.5714 61.2884 70.2144 63.9153 72.356 65.1933C75.0331 66.7907 76.6393 60.9334 72.356 60.9334Z" stroke="#CFCFCF" stroke-width="2"/>
</g>
</g>
</svg>
