<svg width="130" height="120" viewBox="0 0 130 120" fill="none" xmlns="http://www.w3.org/2000/svg">
<g id="image">
<rect id="Rectangle 32" x="7" y="43" width="116" height="48" rx="3" fill="white" stroke="#CFCFCF" stroke-width="2"/>
<rect id="Rectangle 33" x="18" y="49" width="12" height="8" rx="1" fill="white" stroke="#CFCFCF" stroke-width="2"/>
<rect id="Rectangle 121" x="18" y="63" width="12" height="8" rx="1" fill="white" stroke="#CFCFCF" stroke-width="2"/>
<rect id="Rectangle 124" x="18" y="77" width="12" height="8" rx="1" fill="white" stroke="#CFCFCF" stroke-width="2"/>
<rect id="Rectangle 123" x="100" y="63" width="12" height="8" rx="1" fill="white" stroke="#CFCFCF" stroke-width="2"/>
<rect id="Rectangle 122" x="100" y="49" width="12" height="8" rx="1" fill="white" stroke="#CFCFCF" stroke-width="2"/>
<rect id="Rectangle 125" x="100" y="77" width="12" height="8" rx="1" fill="white" stroke="#CFCFCF" stroke-width="2"/>
<rect id="Rectangle 31" x="37" y="43" width="56" height="48" rx="1" fill="white" stroke="#CFCFCF" stroke-width="2"/>
<path id="Rectangle 28" d="M45 43.4027C45 43.1652 45.0846 42.9353 45.2386 42.7545L64.2387 20.437C64.638 19.968 65.3623 19.968 65.7616 20.437L84.7611 42.7545C84.9151 42.9353 84.9997 43.1651 84.9997 43.4027L85 90C85 90.5523 84.5523 91 84 91H46.0003C45.448 91 45.0003 90.5523 45.0003 90L45 43.4027Z" fill="white" stroke="#CFCFCF" stroke-width="2"/>
<path id="Ellipse 18" d="M57 58.5C57 53.1031 60.7208 49 65 49C69.2792 49 73 53.1031 73 58.5V71H57V58.5Z" stroke="#CFCFCF" stroke-width="2"/>
<path id="Vector 12" d="M65.0002 49V71M57.1431 61.0476H72.8574" stroke="#CFCFCF" stroke-width="2"/>
<circle id="Ellipse 113" cx="65" cy="36" r="5" stroke="#CFCFCF" stroke-width="2"/>
</g>
</svg>
