<svg width="200" height="200" viewBox="0 0 200 200" fill="none" xmlns="http://www.w3.org/2000/svg">
<path d="M153.278 127.142C153.278 139.8 141.792 148.82 130.306 148.82C125.3 148.82 121.117 146.538 116.523 143.115C108.483 136.27 108.483 127.142 111.928 118.014C115.374 108.886 125.712 103.181 136.049 105.463C146.387 107.745 153.278 116.873 153.278 127.142Z" fill="white" stroke="#CFCFCF" stroke-width="3" stroke-linejoin="round"/>
<path d="M101.591 106.863C101.591 98.8762 100.443 93.9484 105.037 87.1025C111.929 77.9747 126.861 80.2566 130.307 90.5254C133.752 105.358 131.455 115.732 131.455 130.565C130.307 137.41 126.861 144.256 119.969 147.679C105.037 153.384 86.6596 154.525 75.1736 141.974C71.7278 138.551 69.4306 131.446 70.5792 128.283C72.8764 112.309 65.9848 101.935 74.025 87.1025C77.4708 81.3976 84.3624 80.2566 90.1055 81.3976C94.6999 81.3976 96.9971 84.8205 99.2943 87.1025C105.037 93.9484 101.591 98.8762 101.591 106.863Z" fill="white" stroke="#CFCFCF" stroke-width="3" stroke-linejoin="round"/>
<path d="M88.7266 126.956C90.9434 126.956 90.9434 123.533 88.7266 123.533C86.5098 123.533 86.5098 126.956 88.7266 126.956Z" fill="#CFCFCF"/>
<path d="M112.434 121.764C114.65 121.764 114.65 118.341 112.434 118.341C110.217 118.341 110.217 121.764 112.434 121.764Z" fill="#CFCFCF"/>
<path d="M50 96L34 77" stroke="#CFCFCF" stroke-width="3" stroke-linecap="round" stroke-linejoin="round"/>
<path d="M45 105L29 94" stroke="#CFCFCF" stroke-width="3" stroke-linecap="round" stroke-linejoin="round"/>
<path d="M118 64L125 51" stroke="#CFCFCF" stroke-width="3" stroke-linecap="round" stroke-linejoin="round"/>
<path d="M73.5015 65.0681L60 45" stroke="#CFCFCF" stroke-width="3" stroke-linecap="round" stroke-linejoin="round"/>
<path d="M110 60.1177L114.213 29" stroke="#CFCFCF" stroke-width="3" stroke-linecap="round" stroke-linejoin="round"/>
<path d="M148 81L158 70" stroke="#CFCFCF" stroke-width="3" stroke-linecap="round" stroke-linejoin="round"/>
<path d="M162.256 99.6978L172 94" stroke="#CFCFCF" stroke-width="3" stroke-linecap="round" stroke-linejoin="round"/>
</svg>
