<svg width="130" height="120" viewBox="0 0 130 120" fill="none" xmlns="http://www.w3.org/2000/svg">
<g id="img_school">
<path id="Union" fill-rule="evenodd" clip-rule="evenodd" d="M42 32.1981C42 21.8262 52.1222 13.1284 64.9994 13.1284C77.8765 13.1284 87.9988 21.8262 87.9988 32.1981V45.5779H89.9988V32.1981C89.9988 20.4016 78.6312 11.1284 64.9994 11.1284C51.3675 11.1284 40 20.4016 40 32.1981V45.996H42V32.1981ZM50 32.0727C50 29.1312 51.5818 26.3933 54.2875 24.3568C56.9937 22.32 60.7777 21.0309 64.9996 21.0309C69.2215 21.0309 73.0055 22.32 75.7117 24.3568C78.4174 26.3933 79.9992 29.1312 79.9992 32.0727V47.1249H81.9992V32.0727C81.9992 28.3636 79.9993 25.0807 76.9144 22.7588C73.8298 20.4373 69.614 19.0309 64.9996 19.0309C60.3852 19.0309 56.1693 20.4373 53.0848 22.7588C49.9999 25.0807 48 28.3636 48 32.0727V47.1249H50V32.0727Z" fill="#CFCFCF"/>
<rect id="Rectangle 308" x="30" y="44" width="70" height="58" rx="3" fill="white" stroke="#CFCFCF" stroke-width="2"/>
<path id="Vector 3" d="M55 71.4L61.6667 81L75 65" stroke="#CFCFCF" stroke-width="2" stroke-linecap="round"/>
</g>
</svg>
