<svg width="16" height="16" viewBox="0 0 16 16" fill="none" xmlns="http://www.w3.org/2000/svg">
<path d="M5.32539 10L5.72147 10.0559L5.78577 9.6H5.32539V10ZM4.87644 13.1829L5.27251 13.2387L4.87644 13.1829ZM5.04745 13.2676L5.3368 13.5438H5.3368L5.04745 13.2676ZM8.16623 10V9.6H7.99506L7.87687 9.72382L8.16623 10ZM3.4 5C3.4 4.11634 4.11634 3.4 5 3.4V2.6C3.67452 2.6 2.6 3.67452 2.6 5H3.4ZM3.4 8V5H2.6V8H3.4ZM5 9.6C4.11634 9.6 3.4 8.88366 3.4 8H2.6C2.6 9.32548 3.67452 10.4 5 10.4V9.6ZM5.32539 9.6H5V10.4H5.32539V9.6ZM5.27251 13.2387L5.72147 10.0559L4.92931 9.94413L4.48036 13.127L5.27251 13.2387ZM4.75809 12.9914C4.97037 12.769 5.31103 12.9657 5.27251 13.2387L4.48036 13.127C4.41462 13.593 4.99074 13.9064 5.3368 13.5438L4.75809 12.9914ZM7.87687 9.72382L4.75809 12.9914L5.3368 13.5438L8.45558 10.2762L7.87687 9.72382ZM11 9.6H8.16623V10.4H11V9.6ZM12.6 8C12.6 8.88366 11.8837 9.6 11 9.6V10.4C12.3255 10.4 13.4 9.32548 13.4 8H12.6ZM12.6 5V8H13.4V5H12.6ZM11 3.4C11.8837 3.4 12.6 4.11634 12.6 5H13.4C13.4 3.67452 12.3255 2.6 11 2.6V3.4ZM5 3.4H11V2.6H5V3.4Z" fill="#AB9F9D"/>
</svg>
