<svg width="14" height="13" viewBox="0 0 14 13" fill="none" xmlns="http://www.w3.org/2000/svg">
<g id="icon/interaction_ic_">
<path id="favorite" d="M7 12L6.13 11.2207C5.12 10.3115 4.285 9.52725 3.625 8.86785C2.965 8.20845 2.44 7.61649 2.05 7.09196C1.66 6.56744 1.3875 6.08538 1.2325 5.64578C1.0775 5.20618 1 4.75658 1 4.297C1 3.35786 1.315 2.57357 1.945 1.94414C2.575 1.31471 3.36 1 4.3 1C4.82 1 5.315 1.1099 5.785 1.3297C6.255 1.5495 6.66 1.85922 7 2.25886C7.34 1.85922 7.745 1.5495 8.215 1.3297C8.685 1.1099 9.18 1 9.7 1C10.64 1 11.425 1.31471 12.055 1.94414C12.685 2.57357 13 3.35786 13 4.297C13 4.75658 12.9225 5.20618 12.7675 5.64578C12.6125 6.08538 12.34 6.56744 11.95 7.09196C11.56 7.61649 11.035 8.20845 10.375 8.86785C9.715 9.52725 8.88 10.3115 7.87 11.2207L7 12Z" stroke="#FF5530" stroke-width="0.8" stroke-linejoin="round"/>
</g>
</svg>
