<svg width="12" height="13" viewBox="0 0 12 13" fill="none" xmlns="http://www.w3.org/2000/svg">
<g id="icon/interaction_ic_">
<path id="Union" d="M2.93289 8.83969L3.32872 8.89729L3.3953 8.43969H2.93289V8.83969ZM2.43487 12.2625L2.83071 12.3201L2.43487 12.2625ZM2.60525 12.3462L2.89029 12.6269L2.89029 12.6269L2.60525 12.3462ZM6.05758 8.83969V8.43969H5.89007L5.77254 8.55906L6.05758 8.83969ZM0.775 3.375C0.775 2.49134 1.49134 1.775 2.375 1.775V0.975C1.04952 0.975 -0.025 2.04952 -0.025 3.375H0.775ZM0.775 6.83969V3.375H-0.025V6.83969H0.775ZM2.375 8.43969C1.49134 8.43969 0.775 7.72335 0.775 6.83969H-0.025C-0.025 8.16518 1.04952 9.23969 2.375 9.23969V8.43969ZM2.93289 8.43969H2.375V9.23969H2.93289V8.43969ZM2.83071 12.3201L3.32872 8.89729L2.53706 8.7821L2.03904 12.2049L2.83071 12.3201ZM2.32021 12.0656C2.51846 11.8643 2.87349 12.026 2.83071 12.3201L2.03904 12.2049C1.96847 12.69 2.55625 12.9662 2.89029 12.6269L2.32021 12.0656ZM5.77254 8.55906L2.32021 12.0656L2.89029 12.6269L6.34262 9.12032L5.77254 8.55906ZM9.375 8.43969H6.05758V9.23969H9.375V8.43969ZM10.975 6.83969C10.975 7.72335 10.2587 8.43969 9.375 8.43969V9.23969C10.7005 9.23969 11.775 8.16518 11.775 6.83969H10.975ZM10.975 3.375V6.83969H11.775V3.375H10.975ZM9.375 1.775C10.2587 1.775 10.975 2.49134 10.975 3.375H11.775C11.775 2.04952 10.7005 0.975 9.375 0.975V1.775ZM2.375 1.775H9.375V0.975H2.375V1.775Z" fill="#54B8E2"/>
</g>
</svg>
