<svg width="24" height="24" viewBox="0 0 24 24" fill="none" xmlns="http://www.w3.org/2000/svg">
<g id="&#236;&#132;&#164;&#236;&#160;&#149;">
<mask id="mask0_9108_9906" style="mask-type:alpha" maskUnits="userSpaceOnUse" x="0" y="0" width="24" height="24">
<rect id="Bounding box" width="24" height="24" fill="#D9D9D9"/>
</mask>
<g mask="url(#mask0_9108_9906)">
<path id="settings" d="M9.86624 22L9.45271 18.7863C9.08755 18.6795 8.6927 18.5114 8.26816 18.2821C7.84361 18.0527 7.48248 17.807 7.18478 17.5449L4.13376 18.8056L2 15.1944L4.63748 13.2628C4.60376 13.062 4.5759 12.855 4.5539 12.6421C4.5319 12.4291 4.5209 12.2222 4.5209 12.0214C4.5209 11.8348 4.5319 11.6385 4.5539 11.4327C4.5759 11.2269 4.60376 10.995 4.63748 10.7372L2 8.80556L4.13376 5.23717L7.16279 6.4765C7.50448 6.20015 7.87403 5.95086 8.27144 5.72864C8.66886 5.50642 9.05528 5.33476 9.43072 5.21367L9.86624 2H14.1338L14.5473 5.23503C14.9858 5.3846 15.3733 5.55626 15.7099 5.75C16.0464 5.94372 16.3929 6.18589 16.7492 6.4765L19.8662 5.23717L22 8.80556L19.2745 10.8013C19.3376 11.0306 19.3728 11.2411 19.3801 11.4327C19.3874 11.6243 19.3911 11.8134 19.3911 12C19.3911 12.1724 19.3838 12.3544 19.3691 12.5459C19.3544 12.7375 19.3207 12.9694 19.2679 13.2414L21.9494 15.1944L19.8157 18.8056L16.7492 17.5235C16.3929 17.8141 16.0343 18.0634 15.6736 18.2714C15.3128 18.4793 14.9374 18.6439 14.5473 18.765L14.1338 22H9.86624ZM10.8561 20.8889H13.0933L13.5156 17.8803C14.0919 17.7322 14.6107 17.5288 15.0719 17.2703C15.5331 17.0117 16.0028 16.6574 16.4808 16.2073L19.3339 17.3889L20.4712 15.5L17.9679 13.6731C18.0632 13.3568 18.1262 13.0659 18.1571 12.8002C18.1878 12.5346 18.2032 12.2678 18.2032 12C18.2032 11.7179 18.1878 11.4512 18.1571 11.1998C18.1262 10.9484 18.0632 10.6716 17.9679 10.3697L20.5152 8.5L19.3779 6.61111L16.4589 7.79914C16.1128 7.43019 15.6578 7.0844 15.0939 6.76175C14.53 6.4391 13.9966 6.22507 13.4936 6.11967L13.1439 3.11111H10.8627L10.5064 6.09828C9.93004 6.21795 9.40027 6.41061 8.91707 6.67628C8.43386 6.94194 7.95322 7.30697 7.47515 7.77136L4.6221 6.61111L3.48485 8.5L5.96614 10.2991C5.87081 10.5484 5.80409 10.8191 5.76596 11.1111C5.72783 11.4031 5.70877 11.7065 5.70877 12.0214C5.70877 12.3034 5.72783 12.5833 5.76596 12.8611C5.80409 13.1389 5.86348 13.4095 5.94414 13.6731L3.48485 15.5L4.6221 17.3889L7.45315 16.2222C7.90189 16.6624 8.36787 17.0153 8.8511 17.281C9.3343 17.5467 9.87873 17.7536 10.4844 17.9017L10.8561 20.8889Z" fill="black"/>
<circle id="Ellipse 175" cx="2" cy="2" r="2.5" transform="matrix(1 0 0 -1 10 14)" stroke="black"/>
</g>
</g>
</svg>
