<svg width="21" height="21" viewBox="0 0 21 21" fill="none" xmlns="http://www.w3.org/2000/svg">
<path d="M19.8715 4.25371L18.3414 5.78421C18.2633 5.86231 18.1366 5.86231 18.0585 5.78421L15.1876 2.91331C15.1095 2.83521 15.1095 2.70861 15.1876 2.63051L16.7178 1.09991C16.851 0.966812 17.0644 0.966712 17.1976 1.09991L19.8715 3.77381C20.0048 3.90701 20.0048 4.12041 19.8715 4.25371ZM1 16.9005C1 16.8475 1.0211 16.7966 1.0586 16.7591L12.6969 5.12081C12.775 5.04271 12.9016 5.04271 12.9797 5.12081L15.8506 7.99171C15.9287 8.06981 15.9287 8.19651 15.8506 8.27461L4.2124 19.9128C4.1749 19.9503 4.124 19.9714 4.0709 19.9714H1V16.9005Z" stroke="#F8F8F8" stroke-width="1.6"/>
</svg>
