<svg width="28" height="28" viewBox="0 0 28 28" fill="none" xmlns="http://www.w3.org/2000/svg">
<g id="ic_home_notification">
<path id="Intersect" d="M16.5 20C16.5 21.3807 15.3807 22.5 14 22.5V23.5C15.933 23.5 17.5 21.933 17.5 20H16.5ZM16.4866 19.7397C16.4955 19.8251 16.5 19.9119 16.5 20H17.5C17.5 19.8776 17.4937 19.7565 17.4814 19.637L16.4866 19.7397ZM11.8779 19.5H16.1221V18.5H11.8779V19.5ZM11.5 20C11.5 19.9119 11.5045 19.8251 11.5134 19.7397L10.5186 19.637C10.5063 19.7565 10.5 19.8776 10.5 20H11.5ZM14 22.5C12.6193 22.5 11.5 21.3807 11.5 20H10.5C10.5 21.933 12.067 23.5 14 23.5V22.5ZM11.8779 18.5C11.2766 18.5 10.5958 18.8891 10.5186 19.637L11.5134 19.7397C11.5194 19.6814 11.5474 19.6294 11.6069 19.5841C11.6709 19.5354 11.7675 19.5 11.8779 19.5V18.5ZM17.4814 19.637C17.4042 18.8891 16.7234 18.5 16.1221 18.5V19.5C16.2325 19.5 16.3291 19.5354 16.3931 19.5841C16.4526 19.6294 16.4806 19.6814 16.4866 19.7397L17.4814 19.637Z" fill="black"/>
<path id="Ellipse 12" d="M14 5C10.6863 5 8 7.23858 8 10V14.7639C8 14.9192 7.96385 15.0723 7.89443 15.2111L6.72361 17.5528C6.39116 18.2177 6.87465 19 7.61803 19H20.382C21.1253 19 21.6088 18.2177 21.2764 17.5528L20.1056 15.2111C20.0361 15.0723 20 14.9192 20 14.7639V10C20 7.23858 17.3137 5 14 5Z" stroke="black" stroke-linejoin="round"/>
</g>
</svg>
