<svg width="24" height="24" viewBox="0 0 24 24" fill="none" xmlns="http://www.w3.org/2000/svg">
<g id="&#236;&#149;&#132;&#236;&#157;&#180;&#236;&#189;&#152;/&#236;&#157;&#184;&#237;&#132;&#176;&#235;&#158;&#153;&#236;&#133;&#152;">
<path id="favorite" d="M12 20.0679L11.0136 19.2004C11.0132 19.2001 11.0129 19.1998 11.0126 19.1995C9.33507 17.7169 7.95339 16.4425 6.86519 15.3751C5.78017 14.3107 4.93062 13.3683 4.30804 12.5462C3.68483 11.7232 3.2731 10.9972 3.04631 10.3657C2.81478 9.721 2.7 9.06528 2.7 8.39522C2.7 7.037 3.15597 5.93668 4.06519 5.0448C4.97519 4.15215 6.10345 3.70012 7.5 3.70012C8.26641 3.70012 8.99172 3.85841 9.68291 4.17578C10.2208 4.42278 10.6984 4.74663 11.1187 5.14832C11.6094 5.61721 12.3906 5.61721 12.8813 5.14832C13.3016 4.74663 13.7792 4.42278 14.3171 4.17578C15.0083 3.85841 15.7336 3.70012 16.5 3.70012C17.8966 3.70012 19.0248 4.15215 19.9348 5.0448C20.844 5.93667 21.3 7.037 21.3 8.39522C21.3 9.06528 21.1852 9.721 20.9537 10.3657C20.7269 10.9972 20.3152 11.7232 19.692 12.5462C19.0694 13.3683 18.2198 14.3107 17.1348 15.3751C16.0466 16.4425 14.6649 17.7169 12.9874 19.1995C12.9871 19.1998 12.9868 19.2001 12.9864 19.2004L12 20.0679Z" stroke="#CFCFCF" stroke-width="1.4"/>
</g>
</svg>
