<svg width="24" height="24" viewBox="0 0 24 24" fill="none" xmlns="http://www.w3.org/2000/svg">
<g id="&#236;&#149;&#132;&#236;&#157;&#180;&#236;&#189;&#152;/&#236;&#157;&#184;&#237;&#132;&#176;&#235;&#158;&#153;&#236;&#133;&#152;">
<path id="favorite" d="M12.3302 20.7097C12.1414 20.8758 11.8586 20.8758 11.6698 20.7097L10.55 19.7249C8.86667 18.2372 7.475 16.9538 6.375 15.8748C5.275 14.7958 4.4 13.8271 3.75 12.9688C3.1 12.1105 2.64583 11.3216 2.3875 10.6023C2.12917 9.88296 2 9.14726 2 8.39522C2 6.85843 2.525 5.57505 3.575 4.54508C4.625 3.51511 5.93333 3.00012 7.5 3.00012C8.36667 3.00012 9.19167 3.17996 9.975 3.53963C10.5826 3.81863 11.1251 4.18616 11.6023 4.64223C11.8225 4.85257 12.1775 4.85257 12.3977 4.64223C12.8749 4.18616 13.4174 3.81863 14.025 3.53963C14.8083 3.17996 15.6333 3.00012 16.5 3.00012C18.0667 3.00012 19.375 3.51511 20.425 4.54508C21.475 5.57505 22 6.85843 22 8.39522C22 9.14726 21.8708 9.88296 21.6125 10.6023C21.3542 11.3216 20.9 12.1105 20.25 12.9688C19.6 13.8271 18.725 14.7958 17.625 15.8748C16.525 16.9538 15.1333 18.2372 13.45 19.7249L12.3302 20.7097Z" fill="#FF7663"/>
</g>
</svg>
