<svg width="16" height="16" viewBox="0 0 16 16" fill="none" xmlns="http://www.w3.org/2000/svg">
<path d="M8 13L7.275 12.3624C6.43333 11.6185 5.7375 10.9768 5.1875 10.4373C4.6375 9.89782 4.2 9.41349 3.875 8.98433C3.55 8.55518 3.32292 8.16076 3.19375 7.80109C3.06458 7.44142 3 7.07357 3 6.69755C3 5.92916 3.2625 5.28747 3.7875 4.77248C4.3125 4.25749 4.96667 4 5.75 4C6.18333 4 6.59583 4.08992 6.9875 4.26975C7.37917 4.44959 7.71667 4.703 8 5.02997C8.28333 4.703 8.62083 4.44959 9.0125 4.26975C9.40417 4.08992 9.81667 4 10.25 4C11.0333 4 11.6875 4.25749 12.2125 4.77248C12.7375 5.28747 13 5.92916 13 6.69755C13 7.07357 12.9354 7.44142 12.8063 7.80109C12.6771 8.16076 12.45 8.55518 12.125 8.98433C11.8 9.41349 11.3625 9.89782 10.8125 10.4373C10.2625 10.9768 9.56667 11.6185 8.725 12.3624L8 13Z" stroke="#AB9F9D" stroke-width="0.8" stroke-linejoin="round"/>
</svg>
