<svg width="16" height="16" viewBox="0 0 16 16" fill="none" xmlns="http://www.w3.org/2000/svg">
<g id="&#236;&#149;&#132;&#236;&#157;&#180;&#236;&#189;&#152;/&#235;&#170;&#168;&#235;&#147;&#172;">
<path id="Exclude" fill-rule="evenodd" clip-rule="evenodd" d="M8 16C12.4183 16 16 12.4183 16 8C16 3.58172 12.4183 0 8 0C3.58172 0 0 3.58172 0 8C0 12.4183 3.58172 16 8 16ZM5.49497 4.50503C5.22161 4.23166 4.77839 4.23166 4.50503 4.50503C4.23166 4.77839 4.23166 5.22161 4.50503 5.49497L7.01005 8L4.50503 10.505C4.23166 10.7784 4.23166 11.2216 4.50503 11.495C4.77839 11.7683 5.22161 11.7683 5.49497 11.495L8 8.98995L10.505 11.495C10.7784 11.7683 11.2216 11.7683 11.495 11.495C11.7683 11.2216 11.7683 10.7784 11.495 10.505L8.98995 8L11.495 5.49497C11.7683 5.22161 11.7683 4.77839 11.495 4.50503C11.2216 4.23166 10.7784 4.23166 10.505 4.50503L8 7.01005L5.49497 4.50503Z" fill="#CFCFCF"/>
</g>
</svg>
