<svg width="16" height="17" viewBox="0 0 16 17" fill="none" xmlns="http://www.w3.org/2000/svg">
<g id="&#236;&#149;&#132;&#236;&#157;&#180;&#236;&#189;&#152;/&#237;&#129;&#180;&#235;&#166;&#173;&#235;&#182;&#136;&#234;&#176;&#128;_&#236;&#157;&#184;&#237;&#132;&#176;&#235;&#158;&#153;&#236;&#133;&#152;">
<rect id="Rectangle 213" x="3" y="3.5" width="10" height="10" rx="1" fill="white" stroke="#CFCFCF" stroke-width="0.8" stroke-linejoin="round"/>
<circle id="Ellipse 139" cx="6" cy="6.5" r="1" stroke="#CFCFCF" stroke-width="0.8" stroke-linejoin="round"/>
<path id="Vector 62" d="M7.71716 8.78284L3.60355 12.8964C3.53725 12.9628 3.5 13.0527 3.5 13.1464C3.5 13.3417 3.65829 13.5 3.85355 13.5H12.2528C12.4043 13.5 12.5428 13.4144 12.6106 13.2789L12.9578 12.5845C12.9855 12.5289 13 12.4677 13 12.4056V8.46569C13 8.10932 12.5691 7.93086 12.3172 8.18284L10.2828 10.2172C10.1266 10.3734 9.87337 10.3734 9.71716 10.2172L8.28284 8.78284C8.12663 8.62663 7.87337 8.62663 7.71716 8.78284Z" fill="#CFCFCF"/>
</g>
</svg>
