<svg width="28" height="28" viewBox="0 0 28 28" fill="none" xmlns="http://www.w3.org/2000/svg">
<path fill-rule="evenodd" clip-rule="evenodd" d="M5.86429 11.6999C5.63363 11.8899 5.5 12.173 5.5 12.4719V21.5002C5.5 22.0525 5.94772 22.5002 6.50001 22.5002L11.5 22.5001V16.0001C11.5 15.4478 11.9477 15 12.5 15.0001L15.5 15.0002C16.0523 15.0002 16.5 15.4479 16.5 16.0002V22.5L20.5 22.5C21.6046 22.4999 22.5 21.6045 22.5 20.5V12.9436C22.5 12.3459 22.2327 11.7796 21.7714 11.3997L15.2714 6.04694C14.5329 5.43877 13.4671 5.43878 12.7286 6.04696L5.86429 11.6999Z" fill="#282828"/>
<path d="M5.86429 11.6999L5.54644 11.314H5.54644L5.86429 11.6999ZM6.50001 22.5002L6.50002 23.0002H6.50002L6.50001 22.5002ZM11.5 22.5001L11.5 23.0001L12 23.0001V22.5001H11.5ZM12.5 15.0001L12.5001 14.5001L12.5 15.0001ZM15.5 15.0002L15.5 15.5002H15.5L15.5 15.0002ZM16.5 22.5H16V23L16.5 23L16.5 22.5ZM20.5 22.5L20.5 22L20.5 22.5ZM21.7714 11.3997L22.0892 11.0137L22.0892 11.0137L21.7714 11.3997ZM15.2714 6.04694L14.9536 6.43291V6.43291L15.2714 6.04694ZM12.7286 6.04696L13.0465 6.43293V6.43292L12.7286 6.04696ZM6 12.4719C6 12.3224 6.06681 12.1809 6.18215 12.0859L5.54644 11.314C5.20044 11.5989 5 12.0236 5 12.4719H6ZM6 21.5002V12.4719H5V21.5002H6ZM6.50001 22.0002C6.22386 22.0002 6 21.7763 6 21.5002H5C5 22.3286 5.67159 23.0002 6.50002 23.0002L6.50001 22.0002ZM11.5 22.0001L6.50001 22.0002L6.50002 23.0002L11.5 23.0001L11.5 22.0001ZM12 22.5001V16.0001H11V22.5001H12ZM12 16.0001C12 15.7239 12.2239 15.5 12.5 15.5001L12.5001 14.5001C11.6716 14.5 11 15.1716 11 16.0001H12ZM12.5 15.5001L15.5 15.5002L15.5001 14.5002L12.5001 14.5001L12.5 15.5001ZM15.5 15.5002C15.7762 15.5002 16 15.7241 16 16.0002H17C17 15.1718 16.3285 14.5002 15.5001 14.5002L15.5 15.5002ZM16 16.0002V22.5H17V16.0002H16ZM20.5 22L16.5 22L16.5 23L20.5 23L20.5 22ZM22 20.5C22 21.3284 21.3284 21.9999 20.5 22L20.5 23C21.8807 22.9999 23 21.8807 23 20.5H22ZM22 12.9436V20.5H23V12.9436H22ZM21.4535 11.7856C21.7995 12.0706 22 12.4953 22 12.9436H23C23 12.1965 22.6659 11.4886 22.0892 11.0137L21.4535 11.7856ZM14.9536 6.43291L21.4535 11.7856L22.0892 11.0137L15.5893 5.66097L14.9536 6.43291ZM13.0465 6.43292C13.6003 5.97679 14.3997 5.97678 14.9536 6.43291L15.5893 5.66097C14.6661 4.90076 13.3339 4.90077 12.4108 5.66099L13.0465 6.43292ZM6.18215 12.0859L13.0465 6.43293L12.4108 5.66099L5.54644 11.314L6.18215 12.0859Z" fill="#282828"/>
</svg>
