<svg width="28" height="28" viewBox="0 0 28 28" fill="none" xmlns="http://www.w3.org/2000/svg">
<rect x="4.5" y="14.5" width="19" height="8" rx="0.5" fill="white" stroke="#959595"/>
<path d="M8.5 10.7558C8.5 10.6208 8.55463 10.4915 8.65146 10.3973L13.6515 5.53622C13.8455 5.34755 14.1545 5.34755 14.3485 5.53622L19.3485 10.3973C19.4453 10.4915 19.4999 10.6208 19.4999 10.7558L19.5 22C19.5 22.2761 19.2761 22.5 19 22.5H9.00008C8.72394 22.5 8.50008 22.2761 8.50008 22L8.5 10.7558Z" fill="white" stroke="#959595"/>
<path d="M12 14.0696C12 12.8727 12.9181 11.9446 14 11.9446C15.0819 11.9446 16 12.8727 16 14.0696V16.4446C16 16.7207 15.7761 16.9446 15.5 16.9446H12.5C12.2239 16.9446 12 16.7207 12 16.4446V14.0696Z" fill="white" stroke="#959595"/>
</svg>
