<svg width="28" height="28" viewBox="0 0 28 28" fill="none" xmlns="http://www.w3.org/2000/svg">
<rect x="4.5" y="14.5" width="19" height="8" rx="0.5" fill="#282828" stroke="#282828"/>
<path d="M8.5 10.7558C8.5 10.6208 8.55463 10.4915 8.65146 10.3973L13.6515 5.53622C13.8455 5.34755 14.1545 5.34755 14.3485 5.53622L19.3485 10.3973C19.4453 10.4915 19.4999 10.6208 19.4999 10.7558L19.5 22C19.5 22.2761 19.2761 22.5 19 22.5H9.00008C8.72394 22.5 8.50008 22.2761 8.50008 22L8.5 10.7558Z" fill="#282828" stroke="#282828"/>
<path d="M11.75 14.0696C11.75 12.7463 12.7687 11.6946 14 11.6946C15.2313 11.6946 16.25 12.7463 16.25 14.0696V16.4446C16.25 16.8588 15.9142 17.1946 15.5 17.1946H12.5C12.0858 17.1946 11.75 16.8588 11.75 16.4446V14.0696Z" fill="white" stroke="#282828" stroke-width="0.5"/>
</svg>
