<svg width="24" height="24" viewBox="0 0 24 24" fill="none" xmlns="http://www.w3.org/2000/svg">
<path d="M6.64645 15.9393C6.45118 16.1346 6.45118 16.4512 6.64645 16.6464C6.84171 16.8417 7.15829 16.8417 7.35355 16.6464L6.64645 15.9393ZM16.7929 7C16.7929 6.72386 16.569 6.5 16.2929 6.5L11.7929 6.5C11.5168 6.5 11.2929 6.72386 11.2929 7C11.2929 7.27614 11.5168 7.5 11.7929 7.5L15.7929 7.5L15.7929 11.5C15.7929 11.7761 16.0168 12 16.2929 12C16.569 12 16.7929 11.7761 16.7929 11.5L16.7929 7ZM7.35355 16.6464L16.6464 7.35355L15.9393 6.64645L6.64645 15.9393L7.35355 16.6464Z" fill="#959595"/>
</svg>
